<?xml version="1.0" encoding="UTF-8" standalone="no"?>
<svg
   xmlns:dc="http://purl.org/dc/elements/1.1/"
   xmlns:cc="http://creativecommons.org/ns#"
   xmlns:rdf="http://www.w3.org/1999/02/22-rdf-syntax-ns#"
   xmlns:svg="http://www.w3.org/2000/svg"
   xmlns="http://www.w3.org/2000/svg"
   xmlns:sodipodi="http://sodipodi.sourceforge.net/DTD/sodipodi-0.dtd"
   xmlns:inkscape="http://www.inkscape.org/namespaces/inkscape"
   width="1060.6014pt"
   height="305.00018pt"
   viewBox="0 0 1060.6014 305.00018"
   version="1.1"
   id="svg2"
   inkscape:version="0.91 r13725"
   sodipodi:docname="boost_fractor_logo.svg"
   inkscape:export-filename="/home/stefan/Desktop/boost_fractor_logo.png"
   inkscape:export-xdpi="69.990479"
   inkscape:export-ydpi="69.990479">
  <sodipodi:namedview
     pagecolor="#ffffff"
     bordercolor="#666666"
     borderopacity="1"
     objecttolerance="10"
     gridtolerance="10"
     guidetolerance="10"
     inkscape:pageopacity="0"
     inkscape:pageshadow="2"
     inkscape:window-width="1855"
     inkscape:window-height="1056"
     id="namedview25"
     showgrid="false"
     inkscape:zoom="0.97148114"
     inkscape:cx="345.65803"
     inkscape:cy="108.79817"
     inkscape:window-x="65"
     inkscape:window-y="24"
     inkscape:window-maximized="1"
     inkscape:current-layer="g4496"
     showguides="true"
     inkscape:guide-bbox="true"
     fit-margin-top="0"
     fit-margin-left="0"
     fit-margin-right="0"
     fit-margin-bottom="0">
    <sodipodi:guide
       position="672.95675,184.03542"
       orientation="0,1"
       id="guide4323" />
    <sodipodi:guide
       position="654.90571,107.7552"
       orientation="0,1"
       id="guide4325" />
  </sodipodi:namedview>
  <metadata
     id="metadata29">
    <rdf:RDF>
      <cc:Work
         rdf:about="">
        <dc:format>image/svg+xml</dc:format>
        <dc:type
           rdf:resource="http://purl.org/dc/dcmitype/StillImage" />
        <dc:title></dc:title>
      </cc:Work>
    </rdf:RDF>
  </metadata>
  <defs
     id="defs27" />
  <path
     style="fill:#7a7878;fill-opacity:1;fill-rule:nonzero;stroke:none"
     d="m 446.90595,230.85723 c -0.008,0 -0.0156,0 -0.0274,-0.004 0.0117,0.0391 0.0195,0.082 0.0312,0.12109 z m 0,0"
     id="path5"
     inkscape:connector-curvature="0" />
  <path
     style="fill:#7a7878;fill-opacity:1;fill-rule:nonzero;stroke:none"
     d="m 1286.1848,756.63199 c -0.01,0 -0.016,0 -0.027,-0.004 0.012,0.0391 0.02,0.082 0.031,0.12109 z m 0,0"
     id="path5-1"
     inkscape:connector-curvature="0" />
  <path
     style="fill:#f58f21;fill-opacity:1;fill-rule:nonzero;stroke:none"
     d="m 1415.7785,506.56168 c -8.6602,0 -16.1875,6.34767 -22.5273,17.1172 1.9414,3.30468 3.7734,7.02343 5.4921,11.10155 4.918,-10.4453 10.8555,-18.21875 17.0352,-18.21875 10.0273,0 19.4102,20.44142 24.8516,39.57031 7.7968,27.42579 12.0937,63.98047 12.0937,102.92968 0,38.94923 -4.2969,75.50391 -12.0937,102.9336 -5.4414,19.12891 -14.8243,39.56641 -24.8516,39.56641 -6.1797,0 -12.1172,-7.77343 -17.0352,-18.21485 -1.7187,4.07813 -3.5507,7.79687 -5.4921,11.09767 6.3398,10.77343 13.8671,17.11718 22.5273,17.11718 30.4922,0 46.9453,-78.57031 46.9453,-152.5 0,-73.92968 -16.4531,-152.5 -46.9453,-152.5"
     id="path7-0"
     inkscape:connector-curvature="0" />
  <path
     style="fill:#f58f21;fill-opacity:1;fill-rule:nonzero;stroke:none"
     d="m 1417.6652,659.06168 c 0,-46.49218 -6.5078,-94.8164 -18.9219,-124.28125 -1.7187,-4.07812 -3.5507,-7.79687 -5.4921,-11.10155 -6.3399,-10.76953 -13.8672,-17.1172 -22.5274,-17.1172 -9.3437,0 -17.3633,7.38672 -24,19.7422 1.9219,3.57811 3.7266,7.5703 5.4141,11.92578 5.1953,-12.13672 11.7422,-21.66797 18.5859,-21.66797 10.0235,0 19.4102,20.44141 24.8477,39.5703 7.8008,27.42579 12.0937,63.98047 12.0937,102.9297 0,38.94922 -4.2929,75.5039 -12.0937,102.93358 -5.4375,19.12892 -14.8242,39.56642 -24.8477,39.56642 -6.8437,0 -13.3906,-9.53126 -18.5859,-21.66406 -1.6875,4.35156 -3.4922,8.34765 -5.4141,11.92188 6.6367,12.35936 14.6563,19.74218 24,19.74218 8.6602,0 16.1875,-6.34375 22.5274,-17.11718 1.9414,-3.3008 3.7734,-7.01955 5.4921,-11.09767 12.4141,-29.46874 18.9219,-77.79297 18.9219,-124.28516"
     id="path9-6"
     inkscape:connector-curvature="0" />
  <path
     style="fill:#f58f21;fill-opacity:1;fill-rule:nonzero;stroke:none"
     d="m 1369.6652,659.06168 c 0,-44.72266 -6.0234,-91.1328 -17.5273,-120.83203 -1.6875,-4.35547 -3.4922,-8.34766 -5.4141,-11.92578 -6.6367,-12.35547 -14.6601,-19.74219 -24,-19.74219 -20.8828,0 -35.1797,36.85156 -42.1172,83.82032 l 10.0274,0 c 1.8945,-12.45704 4.3242,-23.99219 7.2383,-34.25001 5.4414,-19.1289 14.8242,-39.57031 24.8515,-39.57031 10.0235,0 19.4102,20.44142 24.8477,39.57031 7.8008,27.42579 12.0937,63.98047 12.0937,102.92969 0,38.94922 -4.2929,75.5039 -12.0937,102.9336 -5.4375,19.1289 -14.8242,39.5664 -24.8477,39.5664 -10.0273,0 -19.4101,-20.4375 -24.8515,-39.5664 -0.4649,-1.64454 -0.918,-3.32422 -1.3594,-5.03126 l -5.1563,0.004 -5.0273,0.004 0.5469,2.51954 c 7.9218,30.80858 19.9843,52.0703 35.8476,52.0703 9.3399,0 17.3633,-7.3828 24,-19.74217 1.9219,-3.57423 3.7266,-7.57032 5.4141,-11.92188 11.5039,-29.69923 17.5273,-76.11328 17.5273,-120.83595"
     id="path11-3"
     inkscape:connector-curvature="0" />
  <path
     style="fill:#7a7878;fill-opacity:1;fill-rule:nonzero;stroke:none"
     d="m 1604.1926,812.97184 c -0.2071,0 -0.4219,-0.0117 -0.6328,-0.0391 -2.2774,-0.28907 -4.0665,-2.09375 -4.336,-4.375 l -26.0781,-221.09371 -34.2656,177.98047 c -0.461,2.38671 -2.5743,4.14063 -5.0078,4.05077 -2.4336,-0.043 -4.4766,-1.83592 -4.8477,-4.24217 l -20.7109,-135.17969 -24.1563,108.16797 c -0.5117,2.28515 -2.5391,3.91015 -4.8789,3.91015 l -14.3242,0 c -2.7617,0 -5,-2.23828 -5,-5 0,-2.76172 2.2383,-5 5,-5 l 10.3164,0 29.0781,-130.21093 c 0.5235,-2.34767 2.6445,-3.9961 5.0469,-3.90625 2.4062,0.082 4.4101,1.86328 4.7734,4.23828 l 20.3594,132.87107 34.8984,-181.23826 c 0.4649,-2.42188 2.6055,-4.12109 5.0899,-4.05078 2.4648,0.0898 4.4961,1.96094 4.7851,4.41015 l 27.4961,233.13672 20.168,-52.05469 c 0.7461,-1.92578 2.5977,-3.19531 4.6641,-3.19531 l 195.3242,0 c 2.7617,0 5,2.23828 5,5 0,2.76172 -2.2383,5 -5,5 l -191.8985,0 -26.2031,67.62889 c -0.7539,1.94142 -2.6172,3.19142 -4.6601,3.19142"
     id="path13-2"
     inkscape:connector-curvature="0" />
  <path
     style="fill:#7a7878;fill-opacity:1;fill-rule:nonzero;stroke:none"
     d="m 1178.5558,671.8781 -42.3359,0 21.0234,-54.07814 z m -15.0039,-65.6836 -0.1211,-0.3164 -11.4804,0 -42.8477,108.10156 10.6797,0 12.75,-32.70313 49.7149,0 12.9023,32.70313 10.9727,0 z m 0,0"
     id="path15-0"
     inkscape:connector-curvature="0" />
  <path
     style="fill:#7a7878;fill-opacity:1;fill-rule:nonzero;stroke:none"
     d="m 1229.1379,614.82731 26.5,0 c 13.1797,0 22.9648,3.875 29.0859,11.51562 6.1485,7.67188 9.2656,18.82032 9.2656,33.13672 0,14.50781 -3.3437,25.82813 -9.9336,33.65234 -6.5703,7.79687 -17.039,11.7461 -31.1171,11.7461 l -23.8008,0 z m 72.0508,20.78907 c -2.2657,-6.63672 -5.5313,-12.22268 -9.7149,-16.60547 -4.1836,-4.38672 -9.3711,-7.71095 -15.418,-9.87891 -6.0234,-2.15626 -12.8945,-3.2539 -20.4179,-3.2539 l -36.6485,0 0,108.10156 33.3477,0 c 7.9219,0 15.1914,-1.14454 21.6172,-3.40625 6.4414,-2.26563 12.0078,-5.71095 16.539,-10.2422 4.5313,-4.53125 8.0547,-10.29686 10.4649,-17.13671 2.4101,-6.82032 3.6289,-14.89844 3.6289,-24.01563 0,-9.01172 -1.1445,-16.94141 -3.3984,-23.56249"
     id="path17-6"
     inkscape:connector-curvature="0" />
  <path
     style="fill:#7a7878;fill-opacity:1;fill-rule:nonzero;stroke:none"
     d="m 1702.9699,671.8781 -42.3359,0 21.0234,-54.07814 z m -15.1289,-66 -11.4766,0 -42.8476,108.10156 10.6797,0 12.75,-32.70313 49.7148,0 12.9023,32.70313 10.9766,0 z m 0,0"
     id="path19-1"
     inkscape:connector-curvature="0" />
  <path
     style="fill:#7a7878;fill-opacity:1;fill-rule:nonzero;stroke:none"
     d="m 1786.8097,657.45231 35.2891,-51.57421 -10.9609,0 -29.8828,43.78515 -29.5899,-43.78515 -12.1719,0 35.4531,50.83203 -38.4336,57.26953 11.1056,0 32.8867,-49.03516 33.332,48.81641 0.1523,0.21875 12.1719,0 z m 0,0"
     id="path21-5"
     inkscape:connector-curvature="0" />
  <path
     style="fill:#7a7878;fill-opacity:1;fill-rule:nonzero;stroke:none"
     d="m 987.73552,812.97184 c -0.10547,0 -0.21094,-0.004 -0.32032,-0.0117 -2.41406,-0.15235 -4.37109,-2.01172 -4.64843,-4.41797 l -19.5,-169.42187 -24.57812,100.53516 c -0.54688,2.23828 -2.55079,3.81249 -4.85547,3.81249 l -36.87891,0 c -2.76172,0 -5,-2.23828 -5,-5 0,-2.76172 2.23828,-5 5,-5 l 32.95312,0 30.27344,-123.84764 c 0.57813,-2.35156 2.76563,-3.95703 5.17188,-3.80079 2.41406,0.14844 4.375,2.01172 4.65234,4.41796 l 19.52734,169.63672 58.59771,-236.93359 c 0.5742,-2.3203 2.6953,-3.91405 5.0937,-3.79297 2.3867,0.11329 4.3594,1.90235 4.707,4.26563 l 31.3946,213.82032 9.6367,-22.24611 c 0.7891,-1.82813 2.5898,-3.0117 4.582,-3.01562 l 217.5782,-0.17187 0,0 c 2.7578,0 4.9961,2.23828 5,4.99608 0,2.76564 -2.2383,5.00392 -4.9961,5.00392 l -214.2969,0.16796 -15.3125,35.36719 c -0.8867,2.05078 -3.0234,3.26564 -5.2422,2.96875 -2.2148,-0.29297 -3.9687,-2.01954 -4.293,-4.23046 l -30.254,-206.04299 -59.14452,239.14062 c -0.5547,2.2422 -2.5664,3.80078 -4.85156,3.80078"
     id="path23-5"
     inkscape:connector-curvature="0" />
  <g
     id="g4231"
     transform="matrix(10.806268,0,0,10.806268,-1579.134,-6333.9579)"
     style="fill:#7a7878;fill-opacity:1;stroke:#7a7878;stroke-width:0.07403111;stroke-linejoin:miter;stroke-miterlimit:4;stroke-dasharray:none;stroke-opacity:1">
    <g
       word-spacing="normal"
       letter-spacing="normal"
       font-size-adjust="none"
       font-stretch="normal"
       font-weight="normal"
       font-variant="normal"
       font-style="normal"
       stroke-miterlimit="10.433"
       xml:space="preserve"
       transform="matrix(0.51857143,0,0,-0.51857143,-90.75,815.25)"
       id="content"
       style="font-style:normal;font-variant:normal;font-weight:normal;font-stretch:normal;letter-spacing:normal;word-spacing:normal;text-anchor:start;fill:#7a7878;fill-opacity:1;fill-rule:evenodd;stroke:#7a7878;stroke-width:0.14275971;stroke-linecap:butt;stroke-linejoin:miter;stroke-miterlimit:4;stroke-dasharray:none;stroke-dashoffset:0;stroke-opacity:1"><path
         id="path4234"
         d="m 484.16,434.54 -0.01,0.35 -0.02,0.35 -0.04,0.33 -0.06,0.34 -0.06,0.33 -0.09,0.32 -0.1,0.32 -0.11,0.31 -0.13,0.3 -0.14,0.29 -0.15,0.29 -0.17,0.27 -0.18,0.27 -0.19,0.26 -0.2,0.25 -0.22,0.24 -0.23,0.22 -0.24,0.22 -0.25,0.2 -0.26,0.2 -0.28,0.17 -0.28,0.17 -0.29,0.15 -0.31,0.14 -0.31,0.12 -0.32,0.11 -0.34,0.09 -0.34,0.08 -0.35,0.06 -0.35,0.05 -0.37,0.02 -0.38,0.01 c -2.89,0 -4.28,-0.8 -6.03,-2.09 -2.73,-1.99 -5.48,-6.83 -6.42,-10.61 l -7.92,-31.64 c -0.06,-0.19 0.19,-0.5 0.59,-0.5 0.39,0 0.55,0.11 0.6,0.25 l 3.48,13.75 c 0.95,-2.99 3.14,-4.83 6.78,-4.83 l -0.15,1.09 c -3.78,0 -5.68,2.89 -5.68,6.44 0,0.48 0,1.23 0.25,2.19 l 3.19,12.61 c 1.1,4.28 4.69,12.2 10.66,12.2 2.89,0 4.64,-1.55 4.64,-4.53 l 0,0 c 0,-3.5 -1.89,-7.08 -4.49,-8.63 -1.34,0.5 -2.34,0.6 -3.84,0.6 -1.05,0 -3.83,0.04 -3.83,-1.6 -0.04,-1.39 2.53,-1.23 3.44,-1.23 l 0.14,1.09 c -0.69,0 -1.69,-0.06 -2.19,0.19 0.11,0.5 1.89,0.41 2.44,0.41 1.05,0 1.5,0 2.14,-0.25 l 0,0 c -0.64,-0.25 -1.19,-0.35 -2.39,-0.35 l -0.14,-1.09 c 1.84,0 2.59,0.05 4.08,0.64 1.89,-1.8 2.14,-3.34 2.2,-5.62 0.1,-2.9 -1.11,-6.63 -2.5,-8.58 -1.94,-2.69 -5.28,-4.49 -8.12,-4.49 l 0.15,-1.09 c 3.64,0 7.38,1.75 9.61,3.94 2.39,2.29 4,5.48 4,9.17 0,3.58 -1.84,6.17 -3.64,7.42 2.89,1.64 5.72,4.73 5.72,8.31 z"
         inkscape:connector-curvature="0"
         style="fill:#7a7878;fill-opacity:1;stroke:#7a7878;stroke-width:0.14275971;stroke-linejoin:miter;stroke-miterlimit:4;stroke-dasharray:none;stroke-opacity:1" /></g>  </g>
  <path
     style="fill:#7a7878;fill-opacity:1;fill-rule:nonzero;stroke:none"
     d="m 392.05113,250.07031 c -0.01,0 -0.016,0 -0.027,-0.004 0.012,0.0391 0.02,0.082 0.031,0.1211 z m 0,0"
     id="path5-1-3"
     inkscape:connector-curvature="0" />
  <path
     style="fill:#7a7878;fill-opacity:1;fill-rule:nonzero;stroke:none"
     d="m 495.81823,0 c 8.6602,0 16.1875,6.34766 22.5273,17.11719 -1.9414,3.30469 -3.7734,7.02344 -5.4921,11.10156 C 507.93543,17.77344 501.99793,10 495.81823,10 c -10.0273,0 -19.4102,20.44141 -24.8516,39.57031 -7.7968,27.425795 -12.0937,63.98048 -12.0937,102.92969 0,38.94923 4.2969,75.50391 12.0937,102.9336 5.4414,19.12891 14.8243,39.56641 24.8516,39.56641 6.1797,0 12.1172,-7.77343 17.0352,-18.21485 1.7187,4.07813 3.5507,7.79687 5.4921,11.09767 -6.3398,10.77343 -13.8671,17.11718 -22.5273,17.11718 -30.4922,0 -46.9453,-78.57031 -46.9453,-152.5 C 448.87293,78.570325 465.32603,0 495.81823,0"
     id="path7-0-8"
     inkscape:connector-curvature="0" />
  <path
     style="fill:#7a7878;fill-opacity:1;fill-rule:nonzero;stroke:none"
     d="m 493.93153,152.50001 c 0,-46.49218 6.5078,-94.816405 18.9219,-124.28126 1.7187,-4.07812 3.5507,-7.79687 5.4921,-11.10156 C 524.68543,6.34766 532.21273,0 540.87293,0 c 9.3437,0 17.3633,7.38672 24,19.74219 -1.9219,3.57812 -3.7266,7.57031 -5.4141,11.92578 C 554.26353,19.53125 547.71663,10 540.87293,10 c -10.0235,0 -19.4102,20.44141 -24.8477,39.57031 -7.8008,27.425795 -12.0937,63.98048 -12.0937,102.9297 0,38.94922 4.2929,75.5039 12.0937,102.93359 5.4375,19.12891 14.8242,39.56641 24.8477,39.56641 6.8437,0 13.3906,-9.53126 18.5859,-21.66406 1.6875,4.35156 3.4922,8.34765 5.4141,11.92188 -6.6367,12.35935 -14.6563,19.74218 -24,19.74218 -8.6602,0 -16.1875,-6.34375 -22.5274,-17.11718 -1.9414,-3.3008 -3.7734,-7.01955 -5.4921,-11.09767 -12.4141,-29.46875 -18.9219,-77.79297 -18.9219,-124.28516"
     id="path9-6-2"
     inkscape:connector-curvature="0" />
  <path
     style="fill:#7a7878;fill-opacity:1;fill-rule:nonzero;stroke:none"
     d="m 541.93153,152.50001 c 0,-44.72266 6.0234,-91.132815 17.5273,-120.83204 1.6875,-4.35547 3.4922,-8.34766 5.4141,-11.92578 C 571.50963,7.38672 579.53303,0 588.87293,0 c 20.8828,0 35.1797,36.85156 42.1172,83.820325 l -10.0274,0 c -1.8945,-12.45704 -4.3242,-23.99219 -7.2383,-34.250015 C 608.28303,30.44141 598.90023,10 588.87293,10 c -10.0235,0 -19.4102,20.44141 -24.8477,39.57031 -7.8008,27.425795 -12.0937,63.98048 -12.0937,102.92969 0,38.94922 4.2929,75.5039 12.0937,102.9336 5.4375,19.1289 14.8242,39.5664 24.8477,39.5664 10.0273,0 19.4101,-20.4375 24.8515,-39.5664 0.4649,-1.64454 0.918,-3.32422 1.3594,-5.03125 l 5.1563,0.004 5.0273,0.004 -0.5469,2.51954 c -7.9218,30.80858 -19.9843,52.0703 -35.8476,52.0703 -9.3399,0 -17.3633,-7.3828 -24,-19.74217 -1.9219,-3.57423 -3.7266,-7.57032 -5.4141,-11.92188 -11.5039,-29.69923 -17.5273,-76.11328 -17.5273,-120.83595"
     id="path11-3-8"
     inkscape:connector-curvature="0" />
  <g
     id="g4496"
     transform="matrix(1,0,-0.22919267,1,41.099638,0.82348485)"
     style="stroke-width:1.6;stroke-miterlimit:4;stroke-dasharray:none;stroke:#7a7878;stroke-opacity:1">
    <flowRoot
       transform="matrix(1.0297532,0,0,1.0297532,-62.264415,-102.671)"
       style="font-style:normal;font-weight:normal;font-size:131.46043396px;line-height:125%;font-family:sans-serif;letter-spacing:0px;word-spacing:0px;fill:#7a7878;fill-opacity:1;stroke:none;stroke-width:1.55377036;stroke-linecap:butt;stroke-linejoin:miter;stroke-opacity:1;stroke-miterlimit:4;stroke-dasharray:none;"
       id="flowRoot4327"
       xml:space="preserve"><flowRegion
         id="flowRegion4329"><rect
           style="fill:#7a7878;fill-opacity:1;stroke-width:1.55377036;stroke-miterlimit:4;stroke-dasharray:none;stroke:none;stroke-opacity:1;"
           y="160.14183"
           x="200.38136"
           height="1657.665"
           width="5162.4429"
           id="rect4331" /></flowRegion><flowPara
         id="flowPara4333">oost   </flowPara></flowRoot>    <flowRoot
       transform="translate(585.14716,102.11719)"
       style="font-style:normal;font-weight:normal;font-size:135.37179565px;line-height:125%;font-family:sans-serif;letter-spacing:0px;word-spacing:0px;fill:#7a7878;fill-opacity:1;stroke:none;stroke-width:1.6;stroke-linecap:butt;stroke-linejoin:miter;stroke-opacity:1;stroke-miterlimit:4;stroke-dasharray:none;"
       id="flowRoot4327-6"
       xml:space="preserve"><flowRegion
         id="flowRegion4329-9"><rect
           style="fill:#7a7878;fill-opacity:1;stroke-width:1.6;stroke-miterlimit:4;stroke-dasharray:none;stroke:none;stroke-opacity:1;"
           y="-39.881401"
           x="-7.4687262"
           height="1706.986"
           width="5316.042"
           id="rect4331-3" /></flowRegion><flowPara
         id="flowPara4333-3">F<flowSpan
   id="flowSpan4395"
   style="fill:#f58f21;fill-opacity:1;stroke-width:1.6;stroke-miterlimit:4;stroke-dasharray:none;stroke:none;stroke-opacity:1;">r</flowSpan>actor</flowPara></flowRoot>  </g>
</svg>
